<svg id="Calque_1" data-name="Calque 1" xmlns="http://www.w3.org/2000/svg" viewBox="0 0 250.01 153.31"><defs><style>.cls-1{fill:#141513;}.cls-2{fill:#fff;}</style></defs><rect class="cls-1" width="250.01" height="153.31"/><path class="cls-2" d="M77.73,104.5V82.08h9.86c10.73,0,10.73,16.69,0,16.69H83.46v5.73Zm9.83-17.29c-1.35,0-2.79,0-4.1,0v6.41h4.1C90.7,93.62,90.89,87.24,87.56,87.21Z" transform="translate(-7.18 -32.88)"/><path class="cls-2" d="M106.56,93.32c0-15.49,23-15.49,23,0S106.56,108.86,106.56,93.32Zm17.13,0a5.63,5.63,0,1,0-11.24,0C112.45,101.46,123.69,101.46,123.69,93.32Z" transform="translate(-7.18 -32.88)"/><path class="cls-2" d="M147.59,99.35h8.13v5.15H141.83V82.08h5.76Z" transform="translate(-7.18 -32.88)"/><path class="cls-2" d="M166.27,93.32c0-15.49,23-15.49,23,0S166.27,108.86,166.27,93.32Zm17.13,0a5.63,5.63,0,1,0-11.24,0C172.16,101.46,183.4,101.46,183.4,93.32Z" transform="translate(-7.18 -32.88)"/><path class="cls-2" d="M77.31,114.14h2v22.49H73.5v-10l-4.77,5h-.64l-4.74-5v10H57.49V114.14H59.6l8.78,9.74Z" transform="translate(-7.18 -32.88)"/><path class="cls-2" d="M106.49,133.81H97.65l-1.31,2.82H90.73v-.84l10.09-21.87h2.47l10.12,21.87v.84H107.8ZM102,123l-2.53,5.89h5.12Z" transform="translate(-7.18 -32.88)"/><path class="cls-2" d="M143.26,135.79v.84h-6.4L133,130h-3v6.6h-5.73V114.21h9.83c8.8,0,10.4,10.63,4.74,14.47Zm-9.12-16.46c-1.35,0-2.76,0-4.1,0v5.61h4.1C137.24,124.94,137.4,119.37,134.14,119.33Z" transform="translate(-7.18 -32.88)"/><path class="cls-2" d="M164.85,114c4.65,0,9.67,2.52,10.54,8.51h-5.63a4.72,4.72,0,0,0-4.91-3.3c-3.35,0-5.57,2.53-5.57,6.25,0,3.29,2.18,6.18,5.57,6.21a4.78,4.78,0,0,0,5-3.62h5.64c-.84,6.34-5.86,8.84-10.64,8.84-5.7,0-11.46-3.81-11.49-11.43S159.15,114,164.85,114Z" transform="translate(-7.18 -32.88)"/><path class="cls-2" d="M186.48,125.45c0-15.5,23-15.5,23,0S186.48,141,186.48,125.45Zm17.13,0a5.64,5.64,0,1,0-11.24,0C192.37,133.58,203.61,133.58,203.61,125.45Z" transform="translate(-7.18 -32.88)"/><path class="cls-2" d="M229.8,154.86H34.57V64.21H229.8ZM39.92,149.51H224.44V69.56H39.92Z" transform="translate(-7.18 -32.88)"/></svg>